# xmcd
#
# Track frame offsets:
#	182
#	15470
#	26975
#	38650
#	50235
#	62950
#	74457
#	87267
#	100117
#	112570
#	126445
#	143477
#	158622
#	171110
#	185092
#	197685
#	206642
#	217940
#	229282
#	241617
#
# Disc length: 3355 seconds
#
# Revision: 1
# Processed by: cddbd v1.5.2PL0 Copyright (c) Steve Scherf et al.
# Submitted via: audiograbber 1.83.01
#
DISCID=140d1914
DTITLE=Solomon Burke - Rock 'N Soul - Solomon Burke
DYEAR=1997
DGENRE=R&B/Soul - Soul
TTITLE0=Goodbye Baby (Baby Goodbye)
TTITLE1=Cry To Me
TTITLE2=Won't You Give Him (One More Chance)
TTITLE3=If You Need Me
TTITLE4=Hard Ain't It Hard
TTITLE5=Can't Nobody Love You
TTITLE6=Just Out Of Reach
TTITLE7=You're Good For Me
TTITLE8=You Can't Love 'Em All
TTITLE9=Someone To Love Me
TTITLE10=Beautiful Brown Eyes
TTITLE11=He'll Have To Go
TTITLE12=Everybody Needs Somebody To Love
TTITLE13=Yes I Do
TTITLE14=The Price
TTITLE15=Got To Get You Off My Mind
TTITLE16=Peepin'
TTITLE17=Little Girl That Loves Me
TTITLE18=Dance, Dance, Dance
TTITLE19=Maggie's Farm
EXTD=Sequel Records. RSA CD 861
EXTT0=
EXTT1=
EXTT2=
EXTT3=
EXTT4=
EXTT5=
EXTT6=
EXTT7=
EXTT8=
EXTT9=
EXTT10=
EXTT11=
EXTT12=
EXTT13=
EXTT14=
EXTT15=
EXTT16=
EXTT17=
EXTT18=
EXTT19=
PLAYORDER=
